<svg xmlns="http://www.w3.org/2000/svg" xmlns:xlink="http://www.w3.org/1999/xlink"
  viewBox="0 0 44 38"   style="
    --default-icon-background: light-dark(white, black);
    --color-1: currentcolor;
    --color-3: var(--icon-background, var(--default-icon-background));
    --color-2: var(--icon-accent, color-mix(in srgb, var(--color-1), var(--color-3) 50%));
  "
  >
  <g id="Manage" transform="translate(0 0)">
    <rect id="Rectangle_5262" data-name="Rectangle 5262" width="41.585" height="29.48"
      transform="translate(1.471 8.202)" fill="var(--color-2)" />
    <rect id="Rectangle_5263" data-name="Rectangle 5263" width="10.844" height="7.937"
      transform="translate(16.627 19.155)" fill="var(--color-3)" />
    <g id="Group_5872" data-name="Group 5872" transform="translate(0 0)">
      <g id="Group_5871" data-name="Group 5871">
        <path id="Path_10804" data-name="Path 10804"
          d="M40.231,6.958a.459.459,0,0,1-.442-.456V5.1a.944.944,0,0,0-1.887,0V6.492a.458.458,0,0,1-.46.456H34.634a.459.459,0,0,1-.461-.456V3.713A3.736,3.736,0,0,0,30.423,0H13.577a3.736,3.736,0,0,0-3.75,3.713V6.492a.459.459,0,0,1-.461.456H6.558a.458.458,0,0,1-.46-.456V5.1a.944.944,0,0,0-1.887,0V6.5a.459.459,0,0,1-.442.456A3.891,3.891,0,0,0,0,10.835V37.066A.939.939,0,0,0,.943,38H43.057A.939.939,0,0,0,44,37.066V10.835a3.891,3.891,0,0,0-3.769-3.878M11.713,3.713a1.857,1.857,0,0,1,1.864-1.846H30.423a1.857,1.857,0,0,1,1.864,1.846V6.492a.458.458,0,0,1-.46.456H12.173a.458.458,0,0,1-.46-.456Zm30.4,31.963a.458.458,0,0,1-.461.456H2.347a.459.459,0,0,1-.461-.456V23.591a.455.455,0,0,1,.241-.4.464.464,0,0,1,.47.018,5.674,5.674,0,0,0,3.062.895h9.322a.458.458,0,0,1,.461.456V26.25a2.034,2.034,0,0,0,2.042,2.022h9.032a2.034,2.034,0,0,0,2.042-2.022V24.559a.459.459,0,0,1,.461-.456h9.322a5.674,5.674,0,0,0,3.062-.895.464.464,0,0,1,.47-.018.455.455,0,0,1,.241.4ZM17.328,25.949v-5.56a.458.458,0,0,1,.461-.455h8.422a.458.458,0,0,1,.461.455v5.56a.458.458,0,0,1-.461.455H17.789a.458.458,0,0,1-.461-.455M42.114,18.5a3.758,3.758,0,0,1-3.773,3.735H29.019a.459.459,0,0,1-.461-.456V20.088a2.034,2.034,0,0,0-2.042-2.022H17.484a2.034,2.034,0,0,0-2.042,2.022v1.691a.458.458,0,0,1-.461.456H5.659A3.758,3.758,0,0,1,1.886,18.5V10.835a2.032,2.032,0,0,1,2.04-2.02H40.074a2.032,2.032,0,0,1,2.04,2.02Z"
          transform="translate(0 0)" fill="var(--color-1)" />
        <path id="Path_10805" data-name="Path 10805"
          d="M21.057,23.395h0a.943.943,0,1,1,.943.934.938.938,0,0,1-.943-.934" transform="translate(0 -0.225)"
          fill="var(--color-1)" />
      </g>
    </g>
  </g>
</svg>